<?xml version="1.0" encoding="UTF-8"?>
<svg id="Layer_1" data-name="Layer 1" xmlns="http://www.w3.org/2000/svg" viewBox="0 0 49 49">
  <defs>
    <style>
      .cls-1 {
        fill: #2b384c;
      }

      .cls-1, .cls-2 {
        fill-rule: evenodd;
      }

      .cls-2 {
        fill: #f3bf27;
      }
    </style>
  </defs>
  <path class="cls-1" d="m24.5,4.75c10.78,0,19.6,8.89,19.6,19.75s-8.82,19.75-19.6,19.75S4.9,35.36,4.9,24.5,13.72,4.75,24.5,4.75"/>
  <path class="cls-2" d="m3.18,24.5C3.18,12.65,12.74,3.02,24.5,3.02s21.32,9.63,21.32,21.48-9.56,21.48-21.32,21.48S3.18,36.35,3.18,24.5m45.82,0c0-4.94-1.47-9.87-4.41-14.07v-5.92c0-.25-.25-.25-.25-.25h-5.88C30.14-1.42,19.11-1.42,10.78,4.26h-6.37v6.17c-5.88,8.39-5.88,19.75,0,28.14v5.93c0,.25.25.25.25.25h5.88c8.33,5.68,19.36,5.68,27.93,0h5.88c.25,0,.25-.25.25-.49v-5.92c2.94-3.95,4.41-8.89,4.41-13.82h0Z"/>
  <path class="cls-2" d="m10.29,12.9h8.08c-.25.99-.25,1.97-.25,2.96.25,3.7,2.7,13.58,2.7,13.58l3.67-15.55,3.92,15.06s2.45-13.33,2.45-14.32c0-.74-.49-1.23-.98-1.73h8.57c-1.22.99-1.96,2.47-2.45,3.95-.73,2.96-3.43,17.77-3.43,18.76s.49,1.97.98,2.72h-7.84c.24-.74.24-1.48.24-2.22,0-1.48-1.22-7.9-1.22-7.9,0,0-1.72,6.66-1.72,7.9,0,.74.25,1.48.49,2.22h-8.09s1.47-1.23,1.47-2.22c-.24-2.96-4.41-18.76-4.65-19.99,0-1.23-.74-2.47-1.96-3.21h0Z"/>
</svg>