<?xml version="1.0" encoding="UTF-8"?>
<svg id="Layer_1" data-name="Layer 1" xmlns="http://www.w3.org/2000/svg" xmlns:xlink="http://www.w3.org/1999/xlink" viewBox="0 0 640 480">
  <defs>
    <style>
      .cls-1 {
        fill: #f4bf2a;
      }

      .cls-1, .cls-2 {
        fill-rule: evenodd;
      }

      .cls-3 {
        clip-path: url(#clippath);
      }

      .cls-4 {
        fill: none;
      }

      .cls-2 {
        fill: #2b374c;
      }
    </style>
    <clipPath id="clippath">
      <rect class="cls-4" width="640" height="480"/>
    </clipPath>
  </defs>
  <g class="cls-3">
    <path class="cls-2" d="m324.91,62.19c97.97,0,178.13,80.77,178.13,179.48s-80.16,179.48-178.13,179.48-178.13-80.76-178.13-179.47S226.94,62.19,324.91,62.19"/>
    <path class="cls-1" d="m131.19,241.67c0-107.69,86.84-195.18,193.72-195.18s193.72,87.5,193.72,195.18-86.84,195.19-193.72,195.19-193.72-87.51-193.72-195.19m416.38.01c0-44.88-13.36-89.74-40.08-127.89v-53.84c0-2.25-2.23-2.25-2.23-2.25h-53.44c-75.7-51.6-175.9-51.6-251.61,0h-57.89v56.09c-53.44,76.27-53.44,179.47,0,255.75v53.85c0,2.24,2.23,2.24,2.23,2.24h53.44c75.71,51.6,175.9,51.6,253.84,0h53.44c2.23,0,2.23-2.25,2.23-4.49v-53.84c26.72-35.89,40.08-80.77,40.08-125.64h0Z"/>
    <path class="cls-1" d="m195.76,136.22h73.48c-2.23,8.97-2.23,17.95-2.23,26.92,2.23,33.67,24.49,123.4,24.49,123.4l33.4-141.33,35.63,136.85s22.27-121.14,22.27-130.11c0-6.74-4.45-11.22-8.91-15.71h77.93c-11.13,8.97-17.81,22.43-22.27,35.89-6.68,26.92-31.17,161.53-31.17,170.5s4.45,17.95,8.91,24.68h-71.25c2.23-6.74,2.23-13.47,2.23-20.2,0-13.46-11.13-71.79-11.13-71.79,0,0-15.59,60.56-15.59,71.79,0,6.74,2.23,13.47,4.45,20.2h-73.48s13.36-11.22,13.36-20.2c-2.23-26.92-40.08-170.5-42.31-181.72,0-11.22-6.68-22.43-17.81-29.17h0Z"/>
  </g>
</svg>