<?xml version="1.0" encoding="UTF-8"?>
<svg id="Layer_1" data-name="Layer 1" xmlns="http://www.w3.org/2000/svg" viewBox="-10 -10 210 210">
  <defs>
    <style>
      .cls-1 {
        fill: url(#gold-gradient);
        stroke: url(#gold-gradient);
        stroke-width: 0.5;
      } 
    </style>
  <linearGradient id="gold-gradient" x1="0%" y1="0%" x2="100%" y2="0%">
    <stop offset="0%" stop-color="#785A28"/>
    <stop offset="50%" stop-color="#C8AA6E"/>
    <stop offset="100%" stop-color="#785A28"/>
  </linearGradient>
  </defs>
  <path class="cls-1" d="m95.23,176c-44.66,0-81.9-34.88-84.8-79.41v-.23s5.35-5.36,5.35-5.36l-5.36-5.36v-.23C13.33,40.88,50.57,6,95.23,6s81.9,34.88,84.8,79.41v.23s-5.35,5.36-5.35,5.36l5.36,5.36v.23c-2.91,44.53-40.16,79.41-84.81,79.41ZM11.45,96.75c2.97,43.9,39.73,78.25,83.78,78.25s80.81-34.35,83.78-78.25l-5.75-5.75,5.75-5.75c-2.97-43.9-39.73-78.25-83.78-78.25S14.42,41.35,11.45,85.25l5.75,5.75-5.75,5.75Z"/>
  <path class="cls-1" d="m94.74,182c-45.91,0-84.73-34.31-90.31-79.81l-.06-.48,10.71-10.71-10.71-10.71.06-.48C10,34.31,48.83,0,94.74,0s85.23,34.69,90.42,80.7l.05.48-9.82,9.82,9.82,9.82-.05.48c-5.18,46.01-44.05,80.7-90.42,80.7ZM6.47,102.43c5.67,44.26,43.53,77.57,88.27,77.57s83.09-33.69,88.37-78.45l-10.55-10.55,10.55-10.55C177.83,35.69,139.92,2,94.74,2S12.14,35.31,6.47,79.57l11.43,11.43-11.43,11.43Z"/>
  <path class="cls-1" d="m4.71,95.71l-4.71-4.71,4.71-4.71,4.71,4.71-4.71,4.71Zm-3.29-4.71l3.29,3.29,3.29-3.29-3.29-3.29-3.29,3.29Z"/>
  <path class="cls-1" d="m186.71,95.71l-4.71-4.71,4.71-4.71,4.71,4.71-4.71,4.71Zm-3.29-4.71l3.29,3.29,3.29-3.29-3.29-3.29-3.29,3.29Z"/>
</svg>